<?xml version="1.0" encoding="UTF-8"?>
<svg version="1.1" xmlns="http://www.w3.org/2000/svg" width="500" height="500">
<path d="M0 0 C1.18577637 0.50418457 1.18577637 0.50418457 2.39550781 1.01855469 C26.21663388 11.19446733 48.68777292 26.52032423 67.3359375 44.453125 C69.4607255 46.48444726 71.6038944 48.38909409 73.875 50.25 C76.96035544 52.85137811 79.53957874 55.76335458 82.14453125 58.83984375 C83.37966556 60.27780012 84.64850174 61.68748982 85.94921875 63.06640625 C97.74515026 75.60367172 107.65161126 89.97588718 116 105 C116.39638672 105.69996094 116.79277344 106.39992188 117.20117188 107.12109375 C124.41998781 119.93702595 130.03202495 133.16556947 135 147 C135.29390625 147.81436523 135.5878125 148.62873047 135.890625 149.46777344 C139.2713847 159.00805405 141.72292175 168.648491 143.75 178.5625 C144.04825684 180.01438721 144.04825684 180.01438721 144.35253906 181.49560547 C147.35446468 197.02786725 148.41120655 212.51705878 148.375 228.3125 C148.37478851 229.1748526 148.37457703 230.0372052 148.37435913 230.9256897 C148.335588 246.90362187 147.0179931 262.28014934 144 278 C143.81808105 278.95310059 143.63616211 279.90620117 143.44873047 280.88818359 C134.78010555 324.49469806 113.01588618 366.17686379 82.4375 398.38671875 C80.6822653 400.26853287 79.03813454 402.1413368 77.4140625 404.12890625 C75.48016243 406.42893303 73.66449635 408.33368147 71.375 410.25 C69.08617944 412.19125892 66.84865787 414.14372424 64.671875 416.2109375 C51.32902266 428.85799692 35.85228757 438.80313923 20 448 C19.39188477 448.35900391 18.78376953 448.71800781 18.15722656 449.08789062 C-7.02388451 463.84388064 -36.23229363 472.82431295 -65 477 C-66.15814209 477.17660156 -67.31628418 477.35320312 -68.50952148 477.53515625 C-79.41489994 479.0687144 -90.18343279 479.39973975 -101.1875 479.375 C-102.1028653 479.37445618 -103.01823059 479.37391235 -103.96133423 479.37335205 C-128.32935518 479.30717704 -151.65387487 476.16409851 -175 469 C-175.83756836 468.74379883 -176.67513672 468.48759766 -177.53808594 468.22363281 C-206.4227013 459.17803814 -233.37543911 444.88477349 -257 426 C-257.5372168 425.57702637 -258.07443359 425.15405273 -258.62792969 424.71826172 C-263.84395448 420.61010877 -268.78390431 416.39158981 -273.390625 411.609375 C-275.0196632 409.9803368 -276.7217945 408.52597886 -278.5 407.0625 C-281.63415868 404.4126484 -284.2967757 401.55303406 -286.9453125 398.421875 C-288.47596583 396.61768286 -290.03857944 394.84051131 -291.6171875 393.078125 C-305.94916882 376.99016631 -317.3302735 359.21955121 -327 340 C-327.41088867 339.1862793 -327.82177734 338.37255859 -328.24511719 337.53417969 C-344.88419851 304.022823 -352.45913648 266.99313877 -352.375 229.75 C-352.37445618 228.83713226 -352.37391235 227.92426453 -352.37335205 226.98373413 C-352.20407493 164.78522654 -328.94225012 106.1507471 -287.0546875 60.27734375 C-285.29434202 58.3262384 -283.60815677 56.33986456 -281.9375 54.3125 C-279.28225915 51.19295473 -276.35002892 48.565708 -273.2265625 45.921875 C-271.68857336 44.59434753 -270.18478607 43.22652057 -268.7109375 41.828125 C-236.38114094 11.19989668 -191.44667353 -10.80452068 -147.33691406 -17.62646484 C-145.00187085 -17.99970096 -142.68815782 -18.44266522 -140.3671875 -18.89453125 C-93.19750505 -27.38422512 -43.46305411 -18.94224632 0 0 Z " fill="#665BC9" transform="translate(352,21)"/>
<path d="M0 0 C3.73922129 1.5813062 6.29649737 3.93230398 9.25 6.6875 C12.48815511 9.68479616 15.72928552 12.67054609 19.0625 15.5625 C22.01707997 18.12673912 24.91960685 20.74137557 27.8125 23.375 C31.18940982 26.42858867 34.63217132 29.34429205 38.1875 32.1875 C44.25320218 37.09003486 49.88164977 42.42258037 55.5546875 47.76953125 C58.67775922 50.71032579 61.86272092 53.56399177 65.11328125 56.36328125 C67.43658787 58.37873772 69.71748465 60.43848462 72 62.5 C77.37243176 67.34332863 82.79709178 72.11754288 88.29296875 76.8203125 C88.89206055 77.33295654 89.49115234 77.84560059 90.10839844 78.3737793 C91.28400284 79.3788175 92.46037196 80.38296228 93.63769531 81.38598633 C94.76276755 82.34694519 95.87880199 83.31859824 96.98499775 84.30122757 C98.99338245 86.04894612 98.99338245 86.04894612 101.28803539 87.58355331 C104.93521211 90.3031641 107.55973226 92.44665651 108.8272953 96.91884613 C109.13557056 100.4785563 109.15940382 103.94023646 109.08520508 107.51269531 C109.08922089 108.86699049 109.09714577 110.22127881 109.10865784 111.57553101 C109.12823529 115.23318488 109.09200177 118.88832413 109.04427171 122.54563999 C109.00271654 126.37940326 109.00934133 130.21311196 109.00968933 134.04705811 C109.00320049 140.47971715 108.96229705 146.91141496 108.89868164 153.34375 C108.82538042 160.77851 108.79736816 168.21232607 108.795533 175.64742589 C108.79328436 183.57231225 108.76054237 191.49684783 108.71751952 199.42160702 C108.70703367 201.70259953 108.70197395 203.98355218 108.69800758 206.26456451 C108.69009574 209.84688244 108.66156729 213.42847264 108.61707115 217.01051712 C108.59746379 218.95143204 108.59728493 220.89251269 108.59765625 222.83352661 C108.57915115 223.98861725 108.56064606 225.14370789 108.5415802 226.33380127 C108.533578 227.337383 108.52557581 228.34096474 108.51733112 229.37495804 C107.85647124 232.72829373 106.67163999 233.92703324 104 236 C100.8994751 236.48101807 100.8994751 236.48101807 97.21191406 236.45410156 C96.20154335 236.45497772 96.20154335 236.45497772 95.17076111 236.45587158 C92.95185193 236.45309232 90.73429846 236.42201114 88.515625 236.390625 C86.97435235 236.38316197 85.4330702 236.37746933 83.89178467 236.37347412 C79.84077627 236.35822246 75.79034415 236.31894539 71.73956299 236.2746582 C67.60379837 236.23369498 63.46794038 236.2154609 59.33203125 236.1953125 C51.2210901 236.15245006 43.11061679 236.08420515 35 236 C34.99453156 234.84488167 34.99453156 234.84488167 34.98895264 233.66642761 C34.95109872 226.4120189 34.89427685 219.15812523 34.81609726 211.90404797 C34.77657355 208.17453936 34.74440953 204.44526857 34.72900391 200.71557617 C34.71386886 197.11670809 34.6794814 193.51849359 34.63169098 189.91991615 C34.61684425 188.54644766 34.60895709 187.17288586 34.60811615 185.79933739 C34.60575502 183.87677532 34.5764413 181.95430331 34.54589844 180.03198242 C34.53701599 178.93722092 34.52813354 177.84245941 34.51898193 176.71452332 C34.23034519 173.93377553 34.23034519 173.93377553 32.32978821 172.14726257 C29.43905867 170.72377447 27.39844309 170.61927877 24.17749023 170.61181641 C23.00625107 170.60235992 21.8350119 170.59290344 20.62828064 170.5831604 C18.73753563 170.59226944 18.73753563 170.59226944 16.80859375 170.6015625 C15.51180191 170.59869232 14.21501007 170.59582214 12.87892151 170.59286499 C10.13767753 170.58844798 7.39672734 170.59485319 4.65551758 170.60888672 C1.14246769 170.62599573 -2.36989545 170.6161235 -5.88292027 170.59816933 C-9.23580405 170.58472336 -12.58850295 170.59413607 -15.94140625 170.6015625 C-17.20392715 170.59548981 -18.46644806 170.58941711 -19.76722717 170.5831604 C-20.93531418 170.59261688 -22.10340118 170.60207336 -23.30688477 170.61181641 C-24.33628677 170.61420319 -25.36568878 170.61658997 -26.42628479 170.61904907 C-28.98860473 170.82224682 -28.98860473 170.82224682 -30.82879639 172.14726257 C-32.51365716 174.81255883 -32.40051159 176.89044272 -32.43237305 180.03198242 C-32.45216721 181.27304245 -32.47196136 182.51410248 -32.49235535 183.79277039 C-32.49912509 185.14700163 -32.50557196 186.50123453 -32.51171875 187.85546875 C-32.52856405 189.24125261 -32.54671409 190.62702118 -32.56611633 192.01277161 C-32.61363938 195.65741192 -32.64343344 199.30199023 -32.66955566 202.94683838 C-32.69934983 206.66715746 -32.745884 210.38726284 -32.79101562 214.10742188 C-32.87707478 221.40484194 -32.94440803 228.7022775 -33 236 C-41.92732977 236.09268433 -50.85449391 236.16375667 -59.78219986 236.20724869 C-63.9277267 236.22812288 -68.07292434 236.25643685 -72.21826172 236.30175781 C-76.21885157 236.34522249 -80.21912481 236.36913838 -84.21993256 236.37950897 C-85.74619277 236.38689931 -87.27243568 236.40133111 -88.7985611 236.42292023 C-90.93672614 236.45196424 -93.07358346 236.45595585 -95.21191406 236.45410156 C-96.4288092 236.46298401 -97.64570435 236.47186646 -98.8994751 236.48101807 C-102.70557363 235.89053671 -103.63655607 234.98267638 -106 232 C-106.52291775 229.38054466 -106.52291775 229.38054466 -106.55503845 226.34725952 C-106.57643387 225.1950592 -106.59782928 224.04285889 -106.61987305 222.85574341 C-106.62277344 221.59543304 -106.62567383 220.33512268 -106.62866211 219.03662109 C-106.64554747 217.69264724 -106.66402539 216.3486926 -106.68397522 215.00476074 C-106.73212425 211.35566905 -106.75384947 207.70689213 -106.76782298 204.05752516 C-106.77733906 201.77456299 -106.79179186 199.49168434 -106.80783272 197.20875931 C-106.86281954 189.23501201 -106.89379971 181.26151938 -106.90600586 173.28759766 C-106.91809469 165.87056222 -106.98658611 158.45546684 -107.08073229 151.0390619 C-107.15885673 144.66090206 -107.19429054 138.28338531 -107.19765478 131.90475142 C-107.20053497 128.09966702 -107.22082603 124.2966589 -107.28529167 120.49207687 C-107.34477037 116.90735663 -107.35079863 113.32632197 -107.31735802 109.74130249 C-107.31244281 107.81308671 -107.36168614 105.88496565 -107.41305542 103.95742798 C-107.31717998 98.59477837 -107.05047615 95.29097947 -103.59729195 91.04719925 C-100.832909 88.51407002 -98.00584465 86.23758449 -95 84 C-93.71755206 82.88825828 -92.44358203 81.76644658 -91.1875 80.625 C-88.75702123 78.50701136 -86.30899441 76.41078601 -83.8515625 74.32421875 C-77.2698147 68.72774593 -70.80368082 63.0438964 -64.48046875 57.15625 C-61.02630626 53.94030561 -57.52564408 50.79482045 -53.95703125 47.70703125 C-51.6144085 45.66366569 -49.30726578 43.58319141 -47 41.5 C-41.67665307 36.70092208 -36.31136661 31.9592205 -30.84765625 27.3203125 C-24.24896472 21.71026541 -17.76888285 16.01071735 -11.43212891 10.10571289 C-7.70213211 6.63233522 -3.90756309 3.27144816 0 0 Z " fill="#FEFEFE" transform="translate(249,158)"/>
<path d="M0 0 C9.39550765 4.23337816 17.04356429 12.83930051 24.45043945 19.84472656 C28.02917049 23.21326446 31.65477838 26.43297799 35.5 29.5 C40.74762017 33.6856018 45.58117549 38.23879202 50.453125 42.84765625 C54.03124189 46.21486788 57.65583183 49.43381825 61.5 52.5 C67.48838495 57.27996646 72.99684413 62.53219357 78.5703125 67.78125 C82.77369141 71.73843423 87.09676864 75.53049755 91.49365234 79.27050781 C98.90044344 85.57351639 106.19969356 91.95511107 113.34375 98.5546875 C117.8387427 102.6927249 122.44853666 106.68725687 127.109375 110.63671875 C130.11687354 113.18796875 133.10827013 115.75699169 136.08740234 118.34130859 C137.39478198 119.47512749 138.7051481 120.60550946 140.01806641 121.73291016 C142.00711202 123.45057025 143.9742043 125.19051232 145.9375 126.9375 C146.55898926 127.46875488 147.18047852 128.00000977 147.82080078 128.54736328 C149.52734375 130.08984375 149.52734375 130.08984375 152 133 C152.1423706 136.30888911 151.41498714 137.49677961 149.328125 140.02734375 C148.64234375 140.65769531 147.9565625 141.28804687 147.25 141.9375 C143.88194005 145.12988776 140.89706623 148.37866722 138 152 C134.07644963 150.38387092 131.28605335 147.6866819 128.25 144.8125 C127.17511738 143.81051284 126.09959648 142.80920995 125.0234375 141.80859375 C124.50362305 141.32374512 123.98380859 140.83889648 123.44824219 140.33935547 C121.01065013 138.08503483 118.50024527 135.91722515 115.9921875 133.7421875 C113.63979365 131.68499601 111.31965034 129.59403085 109 127.5 C106.01937279 124.81016569 103.02754767 122.13689636 100 119.5 C96.10487189 116.10746907 92.27217237 112.64805799 88.4375 109.1875 C86.30582519 107.27445851 84.1598089 105.38112388 82 103.5 C78.97245233 100.86310364 75.98062721 98.18983431 73 95.5 C67.67665307 90.70092208 62.31136661 85.9592205 56.84765625 81.3203125 C50.26681821 75.72558261 43.80234102 70.04264888 37.48046875 64.15625 C34.02630626 60.94030561 30.52564408 57.79482045 26.95703125 54.70703125 C24.6144085 52.66366569 22.30726578 50.58319141 20 48.5 C11.18116564 40.5371264 11.18116564 40.5371264 2 33 C-2.06774448 34.69074954 -5.15663142 37.51437242 -8.4375 40.375 C-9.05149658 40.90520752 -9.66549316 41.43541504 -10.2980957 41.98168945 C-15.06710204 46.12485157 -19.70503525 50.39833075 -24.31860352 54.71289062 C-27.57241784 57.73785549 -30.9019956 60.59967448 -34.375 63.375 C-40.39669368 68.2064614 -45.95437915 73.49211671 -51.5703125 78.78125 C-55.76808922 82.73316017 -60.08290505 86.52345773 -64.47753906 90.25439453 C-72.17792447 96.79404337 -79.72408916 103.45091217 -87.12109375 110.33203125 C-91.6913918 114.5674635 -96.39164663 118.63526191 -101.140625 122.66796875 C-107.15156975 127.78085224 -113.0931241 132.94070428 -118.875 138.3125 C-119.41334473 138.81128662 -119.95168945 139.31007324 -120.50634766 139.82397461 C-122.82846348 141.97734666 -125.14469858 144.13639053 -127.44921875 146.30859375 C-128.14660156 146.94925781 -128.84398437 147.58992187 -129.5625 148.25 C-130.43068359 149.06210937 -130.43068359 149.06210937 -131.31640625 149.890625 C-133 151 -133 151 -137 151 C-139.18359375 149.05859375 -139.18359375 149.05859375 -141.4375 146.4375 C-142.17871094 145.59058594 -142.91992188 144.74367187 -143.68359375 143.87109375 C-146.2688331 140.66679202 -148.63729208 137.37113 -151 134 C-135.8740973 119.79287772 -135.8740973 119.79287772 -129.88671875 114.63671875 C-127.56341213 112.62126228 -125.28251535 110.56151538 -123 108.5 C-117.67665307 103.70092208 -112.31136661 98.9592205 -106.84765625 94.3203125 C-99.7097858 88.25201893 -92.73830738 82.04897817 -85.87890625 75.66796875 C-81.3086082 71.4325365 -76.60835337 67.36473809 -71.859375 63.33203125 C-65.27580547 57.73207562 -58.8063603 52.0463913 -52.48046875 46.15625 C-49.02286368 42.93710045 -45.51970949 39.78755757 -41.9453125 36.69921875 C-39.6633471 34.70593572 -37.42771426 32.66506973 -35.1875 30.625 C-31.81059018 27.57141133 -28.36782868 24.65570795 -24.8125 21.8125 C-19.33694628 17.39294593 -14.22500533 12.63119439 -9.1262207 7.78442383 C-6.19450594 5.00510692 -3.32404894 2.31600402 0 0 Z " fill="#FDFDFE" transform="translate(249,106)"/>
<path d="M0 0 C12.87 0 25.74 0 39 0 C39 4.95 39 9.9 39 15 C39.04125 16.60875 39.0825 18.2175 39.125 19.875 C38.30278092 26.05901392 32.55598461 29.3602675 28 33 C26.32296596 34.48840001 24.65605481 35.98829228 23 37.5 C22.17757812 38.23863281 21.35515625 38.97726563 20.5078125 39.73828125 C18.80889283 41.27048451 17.11635284 42.80978608 15.4296875 44.35546875 C14.16511719 45.50982422 14.16511719 45.50982422 12.875 46.6875 C11.75738281 47.71423828 11.75738281 47.71423828 10.6171875 48.76171875 C7.21286538 51.67317632 3.58360661 54.31229504 0 57 C0 38.19 0 19.38 0 0 Z " fill="#FBFBFD" transform="translate(143,125)"/>
<path d="M0 0 C0.66 0.33 1.32 0.66 2 1 C-5.26 8.26 -12.52 15.52 -20 23 C-20 20 -20 20 -18.64453125 18.3515625 C-18.03996094 17.78179687 -17.43539062 17.21203125 -16.8125 16.625 C-16.16796875 16.00753906 -15.5234375 15.39007813 -14.859375 14.75390625 C-14.24578125 14.17511719 -13.6321875 13.59632812 -13 13 C-12.195625 12.195625 -11.39125 11.39125 -10.5625 10.5625 C-7.04166667 7.04166667 -3.52083333 3.52083333 0 0 Z " fill="#4C73C4" transform="translate(83,63)"/>
</svg>
